<svg width="100" height="24" viewBox="0 0 100 24" fill="none" xmlns="http://www.w3.org/2000/svg">
<path d="M0.161264 13.3637V0.533302H5.25663V13.3637C5.25663 17.3613 7.26111 19.5921 10.9645 19.5921C14.6679 19.5921 16.6385 17.3613 16.6385 13.3637V0.533302H21.7338V13.3637C21.7338 19.9642 17.7928 23.8387 10.9645 23.8387C4.13627 23.8387 0.161264 19.9642 0.161264 13.3637Z" fill="black"/>
<path d="M10.9645 24C7.561 24 4.76435 23.0296 2.87728 21.192C0.994459 19.3601 0 16.654 0 13.3637V0.372038H5.41931V13.3637C5.41931 17.2764 7.38842 19.4309 10.9645 19.4309C12.7526 19.4309 14.1332 18.906 15.0697 17.8692C16.0033 16.8365 16.4758 15.3201 16.4758 13.3637V0.372038H21.8951V13.3637C21.8951 16.6526 20.902 19.3587 19.022 21.192C17.1392 23.0296 14.3525 24 10.9631 24H10.9645ZM0.323942 0.69598V13.3637C0.323942 19.9175 4.20276 23.6761 10.9659 23.6761C14.269 23.6761 16.9765 22.7368 18.7985 20.96C20.6135 19.189 21.574 16.5621 21.574 13.3637V0.69598H16.8011V13.3637C16.8011 17.4844 14.7288 19.7548 10.9659 19.7548C7.20311 19.7548 5.09678 17.4858 5.09678 13.3637V0.69598H0.323942Z" fill="black"/>
<path d="M44.5498 8.93175C44.5498 14.5095 40.7997 17.2991 35.9335 17.2991H29.4575V23.4653H24.8091V0.533302H35.9349C40.8011 0.533302 44.5512 3.29176 44.5512 8.93175H44.5498Z" fill="black"/>
<path d="M29.6188 23.628H24.6465V0.372038H35.9335C41.3472 0.372038 44.7111 3.65248 44.7111 8.93175C44.7111 11.6181 43.834 13.8305 42.1747 15.3271C40.6271 16.7233 38.4699 17.4603 35.9335 17.4603H29.6188V23.628ZM24.9704 23.304H29.2962V17.1378H35.9349C41.1491 17.1378 44.3885 13.9932 44.3885 8.93175C44.3885 6.31333 43.5483 4.17164 41.9583 2.73865C40.4772 1.40186 38.3935 0.69598 35.9335 0.69598H24.9704V23.3054V23.304Z" fill="black"/>
<path d="M64.0132 19.7477V23.652C60.14 23.5586 58.2176 22.4737 56.2032 19.0645L54.7476 16.6158H50.5604V23.4653H45.9121V0.533302H55.1819C60.14 0.533302 63.859 3.32288 63.859 8.59083C63.859 11.9066 61.7201 14.3242 59.1484 15.4092L59.8614 16.6795C60.9152 18.5397 61.9069 19.3135 64.0132 19.7477Z" fill="black"/>
<path d="M64.1759 23.8189L64.0104 23.8147C60.0269 23.7185 58.0959 22.584 56.0646 19.1479L54.6557 16.7799H50.7217V23.6294H45.7494V0.372038H55.1805C57.7395 0.372038 59.9208 1.09631 61.4853 2.46564C63.1432 3.91701 64.0203 6.03466 64.0203 8.59083C64.0203 12.1457 61.6522 14.4656 59.3776 15.4856L60.0028 16.6003C61.0496 18.4477 62.0328 19.1748 64.0471 19.5893L64.1759 19.6162V23.8189ZM50.3991 16.456H54.841L56.3433 18.9839C58.277 22.2558 60.116 23.3663 63.8519 23.4865V19.8793C61.8149 19.4379 60.7992 18.6656 59.7213 16.7601L58.9192 15.3314L59.0862 15.2606C61.3156 14.3199 63.6977 12.0736 63.6977 8.59083C63.6977 6.12944 62.8589 4.09666 61.2745 2.70895C59.7694 1.39196 57.6631 0.69598 55.1833 0.69598H46.0761V23.3054H50.4006V16.456H50.3991Z" fill="black"/>
<path d="M67.1295 0.533302H72.0877V23.4653H67.1295V0.533302Z" fill="black"/>
<path d="M72.249 23.628H66.9683V0.372038H72.249V23.628ZM67.2908 23.304H71.925V0.69598H67.2908V23.3054V23.304Z" fill="black"/>
<path d="M74.542 12C74.542 4.96522 79.1083 0.161264 86.8179 0.161264C94.5274 0.161264 99.0937 4.96522 99.0937 12C99.0937 19.0348 94.5274 23.8387 86.8179 23.8387C79.1083 23.8387 74.542 19.0037 74.542 12ZM94.0068 12C94.0068 7.41389 91.5454 4.40787 86.8164 4.40787C82.0875 4.40787 79.6261 7.41389 79.6261 12C79.6261 16.5861 82.0875 19.5921 86.8164 19.5921C91.5454 19.5921 94.0068 16.5861 94.0068 12Z" fill="black"/>
<path d="M86.8164 24C83.0423 24 79.8807 22.8457 77.6739 20.6601C75.5181 18.5269 74.3793 15.5308 74.3793 12C74.3793 8.46917 75.5181 5.4575 77.6739 3.32712C79.8765 1.15006 83.0381 0 86.8164 0C90.5948 0 93.755 1.15006 95.959 3.32712C98.1148 5.4575 99.2536 8.45644 99.2536 12C99.2536 15.5436 98.1148 18.5269 95.959 20.6601C93.7522 22.8443 90.5906 24 86.8164 24ZM86.8164 0.323942C83.1258 0.323942 80.0434 1.44289 77.9017 3.5577C75.8095 5.62584 74.7033 8.54415 74.7033 12C74.7033 15.4559 75.8095 18.3586 77.9017 20.431C80.0462 22.5543 83.1286 23.6775 86.8164 23.6775C90.5043 23.6775 93.5853 22.5557 95.7312 20.431C97.8234 18.3586 98.9296 15.4445 98.9296 12C98.9296 8.55546 97.8234 5.62584 95.7312 3.5577C93.5895 1.44147 90.5071 0.323942 86.8164 0.323942ZM86.8164 19.7548C84.4951 19.7548 82.5967 19.0192 81.3278 17.6258C80.1084 16.2862 79.4634 14.3412 79.4634 12C79.4634 9.65885 80.1084 7.71378 81.3278 6.37416C82.5967 4.98079 84.4937 4.2452 86.8164 4.2452C89.1392 4.2452 91.0362 4.98079 92.3051 6.37416C93.5245 7.71378 94.1695 9.65885 94.1695 12C94.1695 14.3412 93.5245 16.2862 92.3051 17.6258C91.0362 19.0192 89.1392 19.7548 86.8164 19.7548ZM86.8164 4.56914C82.3492 4.56914 79.7887 7.27809 79.7887 12C79.7887 16.7219 82.3506 19.4309 86.8164 19.4309C91.2823 19.4309 93.8442 16.7219 93.8442 12C93.8442 7.27809 91.2823 4.56914 86.8164 4.56914Z" fill="black"/>
<path d="M36.8629 4.68796H29.5905V12.1782H36.8629V4.68796Z" fill="#158AFF"/>
<path d="M45.6758 4.50973H40.7092V12H45.6758V4.50973Z" fill="#00BFBA"/>
<path d="M48.3607 8.25416L45.6772 4.50973V12L48.3607 8.25416Z" fill="#00BFBA"/>
<path d="M59.5091 8.25416L56.8992 12H50.344L52.9539 8.25416L50.344 4.50973H56.8992L59.5091 8.25416Z" fill="#00E230"/>
</svg>
